# xmcd CD database file
#
# Track frame offsets:
#	150
#	18735
#	37811
#	48061
#	67134
#	81590
#	102812
#	117043
#	138375
#	156332
#	177528
#	195224
#	213333
#	231859
#	245401
#	264736
#	279835
#	297801
#	313974
#	328564
#
# Disc length: 4655 seconds
#
# Revision: 1
# Processed by: cddbd v1.5.1PL2 Copyright (c) Steve Scherf et al.
# Submitted via: CDex 1.51
#
DISCID=21122d14
DTITLE=Thecla Rutting - Theclastories
DYEAR=2006
DGENRE=Country
TTITLE0=Don't ever sell your saddle
TTITLE1=The streets of heaven
TTITLE2=Spread a little love around
TTITLE3=God's will
TTITLE4=Three wooden crosses
TTITLE5=What colour is the wind
TTITLE6=Healing hands
TTITLE7=Two teardrops
TTITLE8=To have and to hold
TTITLE9=Daddy's little girl
TTITLE10=Love does it every time
TTITLE11=Two sparrows in a hurricane
TTITLE12=A father and son
TTITLE13=The hole
TTITLE14=Roses will bloom again
TTITLE15=We believe in happy endings
TTITLE16=The chain of love
TTITLE17=We will pay for it
TTITLE18=One perfect Son
TTITLE19=The valley
EXTD=YEAR: 2006
EXTT0=
EXTT1=
EXTT2=
EXTT3=
EXTT4=
EXTT5=
EXTT6=
EXTT7=
EXTT8=
EXTT9=
EXTT10=
EXTT11=
EXTT12=
EXTT13=
EXTT14=
EXTT15=
EXTT16=
EXTT17=
EXTT18=
EXTT19=
PLAYORDER=
